<?xml version="1.0" encoding="UTF-8"?>
<svg xmlns="http://www.w3.org/2000/svg" xmlns:xlink="http://www.w3.org/1999/xlink" style="background-color: rgb(255, 255, 255);" version="1.1" width="701px" height="386px" viewBox="-0.5 -0.5 701 386">
  <defs>
    <style type="text/css"></style>
  </defs>
  <g>
    <rect x="480" y="30" width="220" height="260" rx="33" ry="33" fill="#dae8fc" stroke="#6c8ebf"></rect>
    <g transform="translate(-0.5 -0.5)">
      <switch>
        <text x="590" y="49" fill="#000000" font-family="Helvetica" font-size="12px" text-anchor="middle">main thread</text>
      </switch>
    </g>
    <rect x="515" y="65" width="150" height="190" rx="22.5" ry="22.5" fill="#f8cecc" stroke="#b85450"></rect>
    <g transform="translate(-0.5 -0.5)">
      <switch>
        <text x="590" y="84" fill="#000000" font-family="Helvetica" font-size="12px" text-anchor="middle">Mutex</text>
      </switch>
    </g>
    <rect x="190" y="170" width="150" height="140" rx="21" ry="21" fill="#dae8fc" stroke="#6c8ebf"></rect>
    <g transform="translate(-0.5 -0.5)">
      <switch>
        <text x="265" y="189" fill="#000000" font-family="Helvetica" font-size="12px" text-anchor="middle">thread 1</text>
      </switch>
    </g>
    <rect x="190" y="0" width="150" height="140" rx="21" ry="21" fill="#dae8fc" stroke="#6c8ebf"></rect>
    <g transform="translate(-0.5 -0.5)">
      <switch>
        <text x="265" y="19" fill="#000000" font-family="Helvetica" font-size="12px" text-anchor="middle">thread 0</text>
      </switch>
    </g>
    <rect x="0" y="10" width="40" height="40" fill-opacity="0.6" fill="#dae8fc" stroke="#6c8ebf" stroke-opacity="0.6"></rect>
    <g transform="translate(-0.5 -0.5)">
      <switch>
        <text x="20" y="34" fill="#000000" font-family="sans-serif" font-size="12px" text-anchor="middle">x</text>
      </switch>
    </g>
    <rect x="40" y="10" width="40" height="40" fill-opacity="0.6" fill="#dae8fc" stroke="#6c8ebf" stroke-opacity="0.6"></rect>
    <g transform="translate(-0.5 -0.5)">
      <switch>
        <text x="60" y="34" fill="#000000" font-family="sans-serif" font-size="12px" text-anchor="middle">y</text>
      </switch>
    </g>
    <rect x="40" y="50" width="40" height="40" fill-opacity="0.6" fill="#ffe6cc" stroke="#d79b00" stroke-opacity="0.6"></rect>
    <g transform="translate(-0.5 -0.5)">
      <switch>
        <text x="60" y="74" fill="#000000" font-family="sans-serif" font-size="12px" text-anchor="middle">1</text>
      </switch>
    </g>
    <rect x="40" y="90" width="40" height="40" fill-opacity="0.6" fill="#ffe6cc" stroke="#d79b00" stroke-opacity="0.6"></rect>
    <g transform="translate(-0.5 -0.5)">
      <switch>
        <text x="60" y="114" fill="#000000" font-family="sans-serif" font-size="12px" text-anchor="middle">2</text>
      </switch>
    </g>
    <rect x="40" y="130" width="40" height="40" fill-opacity="0.6" fill="#ffe6cc" stroke="#d79b00" stroke-opacity="0.6"></rect>
    <g transform="translate(-0.5 -0.5)">
      <switch>
        <text x="60" y="154" fill="#000000" font-family="sans-serif" font-size="12px" text-anchor="middle">3</text>
      </switch>
    </g>
    <rect x="40" y="210" width="40" height="40" fill-opacity="0.6" fill="#ffe6cc" stroke="#d79b00" stroke-opacity="0.6"></rect>
    <g transform="translate(-0.5 -0.5)">
      <switch>
        <text x="60" y="234" fill="#000000" font-family="sans-serif" font-size="12px" text-anchor="middle">5</text>
      </switch>
    </g>
    <rect x="40" y="170" width="40" height="40" fill-opacity="0.6" fill="#ffe6cc" stroke="#d79b00" stroke-opacity="0.6"></rect>
    <g transform="translate(-0.5 -0.5)">
      <switch>
        <text x="60" y="194" fill="#000000" font-family="sans-serif" font-size="12px" text-anchor="middle">4</text>
      </switch>
    </g>
    <rect x="40" y="250" width="40" height="40" fill-opacity="0.6" fill="#ffe6cc" stroke="#d79b00" stroke-opacity="0.6"></rect>
    <g transform="translate(-0.5 -0.5)">
      <switch>
        <text x="60" y="274" fill="#000000" font-family="sans-serif" font-size="12px" text-anchor="middle">6</text>
      </switch>
    </g>
    <rect x="0" y="50" width="40" height="40" fill-opacity="0.6" fill="#ffe6cc" stroke="#d79b00" stroke-opacity="0.6"></rect>
    <g transform="translate(-0.5 -0.5)">
      <switch>
        <text x="20" y="74" fill="#000000" font-family="sans-serif" font-size="12px" text-anchor="middle">a</text>
      </switch>
    </g>
    <rect x="0" y="90" width="40" height="40" fill-opacity="0.6" fill="#ffe6cc" stroke="#d79b00" stroke-opacity="0.6"></rect>
    <g transform="translate(-0.5 -0.5)">
      <switch>
        <text x="20" y="114" fill="#000000" font-family="sans-serif" font-size="12px" text-anchor="middle">c</text>
      </switch>
    </g>
    <rect x="0" y="130" width="40" height="40" fill-opacity="0.6" fill="#ffe6cc" stroke="#d79b00" stroke-opacity="0.6"></rect>
    <g transform="translate(-0.5 -0.5)">
      <switch>
        <text x="20" y="154" fill="#000000" font-family="sans-serif" font-size="12px" text-anchor="middle">c</text>
      </switch>
    </g>
    <rect x="0" y="210" width="40" height="40" fill-opacity="0.6" fill="#ffe6cc" stroke="#d79b00" stroke-opacity="0.6"></rect>
    <g transform="translate(-0.5 -0.5)">
      <switch>
        <text x="20" y="234" fill="#000000" font-family="sans-serif" font-size="12px" text-anchor="middle">a</text>
      </switch>
    </g>
    <rect x="0" y="170" width="40" height="40" fill-opacity="0.6" fill="#ffe6cc" stroke="#d79b00" stroke-opacity="0.6"></rect>
    <g transform="translate(-0.5 -0.5)">
      <switch>
        <text x="20" y="194" fill="#000000" font-family="sans-serif" font-size="12px" text-anchor="middle">b</text>
      </switch>
    </g>
    <rect x="0" y="250" width="40" height="40" fill-opacity="0.6" fill="#ffe6cc" stroke="#d79b00" stroke-opacity="0.6"></rect>
    <g transform="translate(-0.5 -0.5)">
      <switch>
        <text x="20" y="274" fill="#000000" font-family="sans-serif" font-size="12px" text-anchor="middle">b</text>
      </switch>
    </g>
    <path d="M 80 170 L 200 130" fill="none" stroke="#000000" stroke-width="2" stroke-miterlimit="10" stroke-dasharray="2 6"></path>
    <path d="M 80 50 L 200 50" fill="none" stroke="#000000" stroke-width="2" stroke-miterlimit="10" stroke-dasharray="2 6"></path>
    <path d="M 80 170 L 200 210" fill="none" stroke="#000000" stroke-width="2" stroke-miterlimit="10" stroke-dasharray="2 6"></path>
    <path d="M 80 290 L 200 290" fill="none" stroke="#000000" stroke-width="2" stroke-miterlimit="10" stroke-dasharray="2 6"></path>
    <path d="M 220.5 84 L 220.5 74 L 290.5 74 L 290.5 63.5 L 309.5 79 L 290.5 94.5 L 290.5 84 Z" fill="#ffe6cc" stroke="#d79b00" stroke-linejoin="round" stroke-miterlimit="10"></path>
    <rect x="230" y="49" width="50" height="20" fill="none" stroke="none"></rect>
    <g transform="translate(-0.5 -0.5)">
      <switch>
        <text x="255" y="63" fill="#000000" font-family="Helvetica" font-size="12px" text-anchor="middle">HASH</text>
      </switch>
    </g>
    <rect x="570" y="100" width="80" height="40" fill-opacity="0.6" fill="#d5e8d4" stroke="#82b366" stroke-opacity="0.6"></rect>
    <g transform="translate(-0.5 -0.5)">
      <switch>
        <text x="610" y="124" fill="#000000" font-family="sans-serif" font-size="12px" text-anchor="middle">[1, 5]</text>
      </switch>
    </g>
    <rect x="570" y="140" width="80" height="40" fill-opacity="0.6" fill="#d5e8d4" stroke="#82b366" stroke-opacity="0.6"></rect>
    <g transform="translate(-0.5 -0.5)">
      <switch>
        <text x="610" y="164" fill="#000000" font-family="sans-serif" font-size="12px" text-anchor="middle">[4, 6]</text>
      </switch>
    </g>
    <rect x="530" y="100" width="40" height="40" fill-opacity="0.6" fill="#ffe6cc" stroke="#d79b00" stroke-opacity="0.6"></rect>
    <g transform="translate(-0.5 -0.5)">
      <switch>
        <text x="550" y="124" fill="#000000" font-family="sans-serif" font-size="12px" text-anchor="middle">a</text>
      </switch>
    </g>
    <rect x="530" y="140" width="40" height="40" fill-opacity="0.6" fill="#ffe6cc" stroke="#d79b00" stroke-opacity="0.6"></rect>
    <g transform="translate(-0.5 -0.5)">
      <switch>
        <text x="550" y="164" fill="#000000" font-family="sans-serif" font-size="12px" text-anchor="middle">b</text>
      </switch>
    </g>
    <rect x="570" y="180" width="80" height="40" fill-opacity="0.6" fill="#d5e8d4" stroke="#82b366" stroke-opacity="0.6"></rect>
    <g transform="translate(-0.5 -0.5)">
      <switch>
        <text x="610" y="204" fill="#000000" font-family="sans-serif" font-size="12px" text-anchor="middle">[2, 3]</text>
      </switch>
    </g>
    <rect x="530" y="180" width="40" height="40" fill-opacity="0.6" fill="#ffe6cc" stroke="#d79b00" stroke-opacity="0.6"></rect>
    <g transform="translate(-0.5 -0.5)">
      <switch>
        <text x="550" y="204" fill="#000000" font-family="sans-serif" font-size="12px" text-anchor="middle">c</text>
      </switch>
    </g>
    <path d="M 340 291.94 L 530 220" fill="none" stroke="#000000" stroke-width="2" stroke-miterlimit="10" stroke-dasharray="2 6"></path>
    <path d="M 343 20.02 L 530 100" fill="none" stroke="#000000" stroke-width="2" stroke-miterlimit="10" stroke-dasharray="2 6"></path>
    <path d="M 380.5 374 L 380.5 364 L 450.5 364 L 450.5 353.5 L 469.5 369 L 450.5 384.5 L 450.5 374 Z" fill="#dae8fc" stroke="#6c8ebf" stroke-linejoin="round" stroke-miterlimit="10"></path>
    <rect x="340" y="330" width="170" height="20" fill="none" stroke="none"></rect>
    <g transform="translate(-0.5 -0.5)">
      <switch>
        <text x="425" y="344" fill="#000000" font-family="Helvetica" font-size="12px" text-anchor="middle">LOCK + BUILD HASHTABLE</text>
      </switch>
    </g>
    <path d="M 220.5 254 L 220.5 244 L 290.5 244 L 290.5 233.5 L 309.5 249 L 290.5 264.5 L 290.5 254 Z" fill="#ffe6cc" stroke="#d79b00" stroke-linejoin="round" stroke-miterlimit="10"></path>
    <rect x="230" y="219" width="50" height="20" fill="none" stroke="none"></rect>
    <g transform="translate(-0.5 -0.5)">
      <switch>
        <text x="255" y="233" fill="#000000" font-family="Helvetica" font-size="12px" text-anchor="middle">HASH</text>
      </switch>
    </g>
  </g>
  <switch>
    <g></g>
    <a transform="translate(0,-5)" xlink:href="https://www.diagrams.net/doc/faq/svg-export-text-problems">
      <text text-anchor="middle" font-size="10px" x="50%" y="100%">Viewer does not support full SVG 1.1</text>
    </a>
  </switch>
</svg>
